# AST/ASF file generated using VICON BodyLanguage
# -----------------------------------------------
:version 1.10
:name VICON
:units
  mass 1.0
  length 0.45
  angle deg
:documentation
   .ast/.asf automatically generated from VICON data using
   VICON BodyBuilder and BodyLanguage model FoxedUp or BRILLIANT.MOD
:root
   order TX TY TZ RX RY RZ
   axis XYZ
   position 0 0 0  
   orientation 0 0 0 
:bonedata
  begin
     id 1 
     name lhipjoint
     direction 0.78388 -0.462562 0.414208 
     length 3.01181 
     axis 0 0 0  XYZ
  end
  begin
     id 2 
     name lfemur
     direction 0.34202 -0.939693 0  
     length 6.04673  
     axis 0 0 20  XYZ
    dof rx ry rz
    limits (-160.0 20.0)
           (-70.0 70.0)
           (-60.0 70.0)
  end
  begin
     id 3 
     name ltibia
     direction 0.34202 -0.939693 0   
     length 7.211   
     axis 0 0 20   XYZ
    dof rx
    limits (-10.0 170.0)
  end
  begin
     id 4 
     name lfoot
     direction 0.121887 -0.334882 0.934344   
     length 2.13567   
     axis -90 7.62852e-016 20   XYZ
    dof rx rz
    limits (-45.0 90.0)
           (-70.0 20.0)
  end
  begin
     id 5 
     name ltoes
     direction 1.53555e-011 -4.2179e-011 1   
     length 1.05957   
     axis -90 7.62852e-016 20   XYZ
    dof rx
    limits (-90.0 20.0)
  end
  begin
     id 6 
     name rhipjoint
     direction -0.769387 -0.475875 0.426129   
     length 2.92756  
     axis 0 0 0  XYZ 
  end
  begin
     id 7 
     name rfemur
     direction -0.34202 -0.939693 0   
     length 6.35468   
     axis 0 0 -20   XYZ
    dof rx ry rz
    limits (-160.0 20.0)
           (-70.0 70.0)
           (-70.0 60.0)
  end
  begin
     id 8 
     name rtibia
     direction -0.34202 -0.939693 0   
     length 7.37886   
     axis 0 0 -20   XYZ
    dof rx
    limits (-10.0 170.0)
 end
 begin
     id 9 
     name rfoot
     direction -0.101763 -0.279592 0.954711   
     length 2.21478  
     axis -90 -7.62852e-016 -20   XYZ
    dof rx rz
    limits (-45.0 90.0)
           (-20.0 70.0)
  end
  begin
     id 10 
     name rtoes
     direction -1.53494e-011 -4.21851e-011 1   
     length 1.10506   
     axis -90 -7.62852e-016 -20   XYZ
    dof rx
    limits (-90.0 20.0)
  end
  begin
     id 11 
     name lowerback
     direction 0.00747405 0.999267 0.0375481   
     length 2.13259   
     axis 0 0 0   XYZ
    dof rx ry rz
    limits (-20.0 45.0)
           (-30.0 30.0)
           (-30.0 30.0)
  end
  begin
     id 12 
     name upperback
     direction 0.00661626 0.996177 0.0871029   
     length 2.10528   
     axis 0 0 0   XYZ
    dof rx ry rz
    limits (-20.0 45.0)
           (-30.0 30.0)
           (-30.0 30.0)
  end
  begin
     id 13 
     name thorax
     direction 0.00320659 0.997679 0.0680167   
     length 2.11338   
     axis 0 0 0   XYZ
    dof rx ry rz
    limits (-20.0 45.0)
           (-30.0 30.0)
           (-30.0 30.0)
  end
  begin
     id 14 
     name lowerneck
     direction 0.0374841 0.973033 0.227602   
     length 1.42765   
     axis 0 0 0   XYZ
    dof rx ry rz
    limits (-20.0 45.0)
           (-30.0 30.0)
           (-30.0 30.0)
  end
  begin
     id 15 
     name upperneck
     direction 0.00481585 0.989155 -0.146795   
     length 1.47593   
     axis 0 0 0   XYZ
    dof rx ry rz
    limits (-20.0 45.0)
           (-30.0 30.0)
           (-30.0 30.0)
  end
  begin
     id 16
     name head
     direction -0.00292522 0.997206 -0.0746423  
     length 1.48116  
     axis 0 0 0   XYZ
    dof rx ry rz
    limits (-20.0 45.0)
           (-30.0 30.0)
           (-30.0 30.0)
  end
  begin
     id 17 
     name lclavicle
     direction 0.951444 0.305606 0.0368784  
     length 3.01855  
     axis 0 0 0   XYZ
    dof ry rz
    limits (-20.0 10.0)
           (0.0 20.0)
  end
  begin
     id 18 
     name lhumerus
     direction 1 -4.48977e-011 2.61664e-027   
     length 5.52731   
     axis 180 -30 -90   XYZ
    dof rx ry rz
    limits (-60.0 90.0)
           (-90.0 90.0)
           (-90.0 90.0)
  end
  begin
     id 19
     name lradius
     direction 1 -4.48944e-011 8.22157e-027   
     length 3.11059   
     axis 180 -30 -90   XYZ
    dof rx
    limits (-10.0 170.0)
  end
  begin
     id 20
     name lwrist
     direction 1 -4.48976e-011 1.5779e-026   
     length 1.5553   
     axis -1.15221e-014 90 90   XYZ
    dof ry
    limits (-180.0 0.0)
 end
  begin
     id 21 
     name lhand
     direction 1 -4.49025e-011 3.1558e-026   
     length 0.419626   
     axis -2.01367e-014 90 90   XYZ
    dof rx rz
    limits (-90.0 90.0)
           (-45.0 45.0)
  end
  begin
     id 22 
     name lfingers
     direction 1 -4.4904e-011 6.31161e-026   
     length 0.338313   
     axis -4.02734e-014 90 90   XYZ
    dof rx
    limits (0.0 90.0)
  end
  begin
     id 23
     name lthumb
     direction 0.707107 -6.35004e-011 0.707107   
     length 0.485752   
     axis -90 45 2.85299e-015   XYZ
    dof rx rz
    limits (-45.0 45.0)
           (-45.0 45.0)
  end
  begin
     id 24 
     name rclavicle
     direction -0.968876 0.223791 0.105816   
     length 3.04177  
     axis 0 0 0   XYZ 
    dof ry rz
    limits (-10.0 20.0)
           (-20.0 0.0)
  end
  begin
     id 25 
     name rhumerus
     direction -1 -4.48962e-011 -1.01384e-027  
     length 5.25396   
     axis 180 30 90   XYZ
    dof rx ry rz
    limits (-90.0 60.0)
           (-90.0 90.0)
           (-90.0 90.0)
  end
  begin
     id 26 
     name rradius
     direction -1 -4.48955e-011 8.88542e-027   
     length 3.10567   
     axis 180 30 90   XYZ
    dof rx
    limits (-10.0 170.0)
  end
  begin
     id 27 
     name rwrist
     direction -1 -4.48994e-011 1.5779e-026   
     length 1.55283   
     axis -1.15221e-014 -90 -90   XYZ
    dof ry
    limits (-180.0 0.0)
  end
  begin
     id 28
     name rhand
     direction -1 -4.48891e-011 3.1558e-026   
     length 0.498676   
     axis -2.01367e-014 -90 -90   XYZ
    dof rx rz
    limits (-90.0 90.0)
           (-45.0 45.0)
  end
  begin
     id 29
     name rfingers
     direction -1 -4.48972e-011 6.31161e-026   
     length 0.402045   
     axis -4.02734e-014 -90 -90   XYZ
    dof rx
    limits (0.0 90.0)
  end
  begin
     id 30
     name rthumb
     direction -0.707107 -6.34849e-011 0.707107   
     length 0.577259   
     axis -90 -45 -2.85299e-015   XYZ
    dof rx rz
    limits (-45.0 45.0)
           (-45.0 45.0)
  end
:hierarchy
  begin
    root lhipjoint rhipjoint lowerback
    lhipjoint lfemur
    lfemur ltibia
    ltibia lfoot
    lfoot ltoes
    rhipjoint rfemur
    rfemur rtibia
    rtibia rfoot
    rfoot rtoes
    lowerback upperback
    upperback thorax
    thorax lowerneck lclavicle rclavicle
    lowerneck upperneck
    upperneck head
    lclavicle lhumerus
    lhumerus lradius
    lradius lwrist
    lwrist lhand lthumb
    lhand lfingers
    rclavicle rhumerus
    rhumerus rradius
    rradius rwrist
    rwrist rhand rthumb
    rhand rfingers
  end

#!OML:ASF H:\Pregnant\Project 1\Capture day 1\Session 1\femalepreg.ASF
:FULLY-SPECIFIED
:DEGREES
34
root 1.71376 15.7058 31.6345 172.973 -82.1346 -155.541
lowerback -25.5031 0.773503 0.0949749
upperback -7.44396 0.161694 1.61693
thorax 5.90972 -0.206732 1.72961
lowerneck -20.8734 4.94641 6.34855
upperneck 26.4148 4.94349 -1.18071
head 12.4297 2.58401 -0.704766
rclavicle 3.46631e-015 -1.83876e-015
rhumerus -48.4914 7.37211 -86.7943
rradius 27.8778
rwrist -19.811
rhand -16.5108 -28.4964
rfingers 7.12502
rthumb 9.70734 -58.2527
lclavicle 3.46631e-015 -1.83876e-015
lhumerus -45.5955 -18.97 96.4427
lradius 30.3962
lwrist 36.762
lhand -25.6644 5.0297
lfingers 7.12502
lthumb 0.869918 35.0077
rfemur -27.9197 19.4062 22.013
rtibia 26.2115
rfoot -12.0887 -9.67153
rtoes 5.6419
lfemur 0 0 0
ltibia 0
lfoot 0 0
ltoes 0
35
root 1.71708 15.706 31.6344 173.129 -82.1396 -155.709
lowerback -25.4639 0.771503 0.0597394
upperback -7.42963 0.171253 1.61145
thorax 5.90558 -0.201077 1.7465
lowerneck -20.8162 4.93656 6.34229
upperneck 26.3673 4.9357 -1.1806
head 12.3988 2.58029 -0.706433
rclavicle 3.97569e-016 -1.15792e-014
rhumerus -48.35 6.85494 -86.4291
rradius 27.6585
rwrist -19.6867
rhand -16.5312 -28.4522
rfingers 7.12502
rthumb 9.68766 -58.2094
lclavicle 3.97569e-016 -1.15792e-014
lhumerus -45.641 -18.9333 96.5031
lradius 30.3597
lwrist 36.8431
lhand -25.5885 5.13465
lfingers 7.12502
lthumb 0.943217 35.1123
rfemur -27.9348 19.4002 21.9896
rtibia 26.2371
rfoot -12.1 -9.6661
rtoes 5.67722
lfemur 0 0 0
ltibia 0
lfoot 0 0
ltoes 0
36
root 1.72027 15.7061 31.6343 173.262 -82.146 -155.854
lowerback -25.4256 0.773366 0.0310412
upperback -7.41349 0.184451 1.60416
thorax 5.90377 -0.193597 1.75875
lowerneck -20.7579 4.92419 6.33315
upperneck 26.3143 4.92479 -1.17828
head 12.3651 2.57524 -0.707356
rclavicle -1.64246e-014 -2.43014e-014
rhumerus -48.216 6.30504 -86.0444
rradius 27.4516
rwrist -19.5829
rhand -16.5469 -28.3956
rfingers 7.12502
rthumb 9.67249 -58.1536
lclavicle -1.64246e-014 -2.43014e-014
lhumerus -45.6801 -18.8913 96.5571
lradius 30.3267
lwrist 36.928
lhand -25.5108 5.25079
lfingers 7.12502
lthumb 1.01819 35.2281
rfemur -27.9488 19.3987 21.9678
rtibia 26.2629
rfoot -12.1123 -9.66796
rtoes 5.72999
lfemur 0 0 0
ltibia 0
lfoot 0 0
ltoes 0
37
root 1.72333 15.7063 31.6342 173.389 -82.1544 -155.991
lowerback -25.3878 0.775748 0.00477878
upperback -7.39664 0.197812 1.59609
thorax 5.90304 -0.18602 1.76878
lowerneck -20.6914 4.91019 6.31781
upperneck 26.2496 4.91209 -1.16825
head 12.3248 2.5699 -0.704845
rclavicle 6.1996e-015 -5.31749e-015
rhumerus -48.0949 5.74233 -85.6543
rradius 27.2614
rwrist -19.518
rhand -16.5817 -28.335
rfingers 7.12502
rthumb 9.63899 -58.0944
lclavicle 6.1996e-015 -5.31749e-015
lhumerus -45.7179 -18.8433 96.6062
lradius 30.3053
lwrist 37.0493
lhand -25.4502 5.3881
lfingers 7.12502
lthumb 1.07677 35.3651
rfemur -27.9629 19.4005 21.9449
rtibia 26.2884
rfoot -12.1252 -9.67859
rtoes 5.75796
lfemur 0 0 0
ltibia 0
lfoot 0 0
ltoes 0
38
root 1.72632 15.7064 31.6341 173.513 -82.1647 -156.126
lowerback -25.3471 0.778848 -0.0198385
upperback -7.37912 0.2119 1.58736
thorax 5.90159 -0.178028 1.77735
lowerneck -20.6221 4.89522 6.28828
upperneck 26.1757 4.89997 -1.14702
head 12.2794 2.56497 -0.695756
rclavicle -8.1129e-015 1.74434e-014
rhumerus -47.9893 5.17102 -85.2618
rradius 27.091
rwrist -19.4986
rhand -16.64 -28.2848
rfingers 7.12502
rthumb 9.58267 -58.0469
lclavicle -8.1129e-015 1.74434e-014
lhumerus -45.7398 -18.7648 96.6257
lradius 30.2687
lwrist 37.1241
lhand -25.2631 5.46844
lfingers 7.12502
lthumb 1.25748 35.4445
rfemur -27.9761 19.4035 21.922
rtibia 26.3139
rfoot -12.1378 -9.69481
rtoes 5.77782
lfemur 0 0 0
ltibia 0
lfoot 0 0
ltoes 0
39
root 1.72934 15.7064 31.634 173.625 -82.1772 -156.25
lowerback -25.302 0.778734 -0.0454971
upperback -7.36232 0.221808 1.58258
thorax 5.89722 -0.172034 1.78953
lowerneck -20.5499 4.88403 6.25396
upperneck 26.0942 4.89564 -1.12683
head 12.2308 2.56296 -0.685038
rclavicle 6.32384e-015 1.32689e-014
rhumerus -47.9008 4.61427 -84.8758
rradius 26.9397
rwrist -19.5387
rhand -16.6992 -28.2429
rfingers 7.12502
rthumb 9.52562 -58.0076
lclavicle 6.32384e-015 1.32689e-014
lhumerus -45.7587 -18.6645 96.6353
lradius 30.2438
lwrist 37.2359
lhand -25.0672 5.56919
lfingers 7.12502
lthumb 1.44666 35.544
rfemur -27.9888 19.4087 21.8987
rtibia 26.3381
rfoot -12.1498 -9.71586
rtoes 5.81717
lfemur 0 0 0
ltibia 0
lfoot 0 0
ltoes 0
